# xmcd CD database file
# Generated: Sam Dez 20 17:54:43 2003 by KSCD
# 
# Track frame offsets:
#       150
#       28567
#       56809
#       101767
#       126505
#       148384
#       171055
#       197906
#       225995
#       254644
#
# Disc length: 3747 seconds
#
# Revision: 1
# Processed by: cddbd v1.4PL0 Copyright (c) Steve Scherf et al.
# Submitted via: Kscd 1.3.3
#
DISCID=970ea10a
DTITLE=Hollis Gilmore - Gillie's Blues
DYEAR=1900
DGENRE=
TTITLE0=Blues For Brother Jake
TTITLE1=Little Magnolia
TTITLE2=Gillie's Blues
TTITLE3=Please Send Me Someone To Love
TTITLE4=Pill Station
TTITLE5=Fouty Weight Gravy
TTITLE6=Bring Your Own Biscuits
TTITLE7=Feeling The Blues
TTITLE8=Keep Looking Up
TTITLE9=Senita
EXTD=
EXTT0=
EXTT1=
EXTT2=
EXTT3=
EXTT4=
EXTT5=
EXTT6=
EXTT7=
EXTT8=
EXTT9=
PLAYORDER=
